<?xml version="1.0" encoding="UTF-8" standalone="no"?>
<!DOCTYPE svg PUBLIC "-//W3C//DTD SVG 1.1//EN"
 "http://www.w3.org/Graphics/SVG/1.1/DTD/svg11.dtd">
<!-- Generated by graphviz version 2.38.0 (20140413.2041)
 -->
<!-- Title: RGL__ImplicitGraph Pages: 1 -->
<svg width="397pt" height="476pt"
 viewBox="0.00 0.00 396.57 476.00" xmlns="http://www.w3.org/2000/svg" xmlns:xlink="http://www.w3.org/1999/xlink">
<g id="graph0" class="graph" transform="scale(1 1) rotate(0) translate(4 472)">
<title>RGL__ImplicitGraph</title>
<polygon fill="white" stroke="none" points="-4,4 -4,-472 392.572,-472 392.572,4 -4,4"/>
<!-- 46944165553220 -->
<g id="node1" class="node"><title>46944165553220</title>
<ellipse fill="none" stroke="black" cx="206" cy="-450" rx="27" ry="18"/>
<text text-anchor="middle" x="206" y="-448.1" font-family="Times,serif" font-size="8.00">Add</text>
</g>
<!-- 46944165553260 -->
<g id="node2" class="node"><title>46944165553260</title>
<ellipse fill="none" stroke="black" cx="170" cy="-378" rx="27" ry="18"/>
<text text-anchor="middle" x="170" y="-376.1" font-family="Times,serif" font-size="8.00">Exp</text>
</g>
<!-- 46944165553220&#45;&gt;46944165553260 -->
<g id="edge1" class="edge"><title>46944165553220&#45;&gt;46944165553260</title>
<path fill="none" stroke="black" d="M197.65,-432.765C193.288,-424.283 187.853,-413.714 182.959,-404.197"/>
<polygon fill="black" stroke="black" points="185.99,-402.439 178.304,-395.147 179.765,-405.641 185.99,-402.439"/>
</g>
<!-- 46944165553240 -->
<g id="node9" class="node"><title>46944165553240</title>
<ellipse fill="none" stroke="black" cx="242" cy="-378" rx="27" ry="18"/>
<text text-anchor="middle" x="242" y="-376.1" font-family="Times,serif" font-size="8.00">Exp</text>
</g>
<!-- 46944165553220&#45;&gt;46944165553240 -->
<g id="edge2" class="edge"><title>46944165553220&#45;&gt;46944165553240</title>
<path fill="none" stroke="black" d="M214.35,-432.765C218.712,-424.283 224.147,-413.714 229.041,-404.197"/>
<polygon fill="black" stroke="black" points="232.235,-405.641 233.696,-395.147 226.01,-402.439 232.235,-405.641"/>
</g>
<!-- 46944165502100 -->
<g id="node3" class="node"><title>46944165502100</title>
<ellipse fill="none" stroke="black" cx="129" cy="-306" rx="31.5313" ry="18"/>
<text text-anchor="middle" x="129" y="-304.1" font-family="Times,serif" font-size="8.00">Composition</text>
</g>
<!-- 46944165553260&#45;&gt;46944165502100 -->
<g id="edge3" class="edge"><title>46944165553260&#45;&gt;46944165502100</title>
<path fill="none" stroke="black" d="M160.491,-360.765C155.543,-352.317 149.382,-341.799 143.826,-332.312"/>
<polygon fill="black" stroke="black" points="146.817,-330.493 138.742,-323.633 140.776,-334.031 146.817,-330.493"/>
</g>
<!-- 46944165502720 -->
<g id="node8" class="node"><title>46944165502720</title>
<ellipse fill="none" stroke="black" cx="206" cy="-306" rx="27" ry="18"/>
<text text-anchor="middle" x="206" y="-304.1" font-family="Times,serif" font-size="8.00">psi</text>
</g>
<!-- 46944165553260&#45;&gt;46944165502720 -->
<g id="edge4" class="edge"><title>46944165553260&#45;&gt;46944165502720</title>
<path fill="none" stroke="black" d="M178.35,-360.765C182.712,-352.283 188.147,-341.714 193.041,-332.197"/>
<polygon fill="black" stroke="black" points="196.235,-333.641 197.696,-323.147 190.01,-330.439 196.235,-333.641"/>
</g>
<!-- 46944165502160 -->
<g id="node4" class="node"><title>46944165502160</title>
<ellipse fill="none" stroke="black" cx="63" cy="-234" rx="31.5313" ry="18"/>
<text text-anchor="middle" x="63" y="-232.1" font-family="Times,serif" font-size="8.00">Composition</text>
</g>
<!-- 46944165502100&#45;&gt;46944165502160 -->
<g id="edge5" class="edge"><title>46944165502100&#45;&gt;46944165502160</title>
<path fill="none" stroke="black" d="M114.679,-289.811C105.771,-280.363 94.1548,-268.043 84.1925,-257.477"/>
<polygon fill="black" stroke="black" points="86.6998,-255.034 77.2931,-250.159 81.6067,-259.836 86.6998,-255.034"/>
</g>
<!-- 46944165502120 -->
<g id="node7" class="node"><title>46944165502120</title>
<ellipse fill="none" stroke="black" cx="151" cy="-234" rx="38.6432" ry="18"/>
<text text-anchor="middle" x="151" y="-232.1" font-family="Times,serif" font-size="8.00">InverseWavelet</text>
</g>
<!-- 46944165502100&#45;&gt;46944165502120 -->
<g id="edge6" class="edge"><title>46944165502100&#45;&gt;46944165502120</title>
<path fill="none" stroke="black" d="M134.326,-288.055C136.775,-280.261 139.742,-270.822 142.489,-262.079"/>
<polygon fill="black" stroke="black" points="145.911,-262.865 145.571,-252.275 139.233,-260.766 145.911,-262.865"/>
</g>
<!-- 46944165502240 -->
<g id="node5" class="node"><title>46944165502240</title>
<ellipse fill="none" stroke="black" cx="27" cy="-162" rx="27" ry="18"/>
<text text-anchor="middle" x="27" y="-160.1" font-family="Times,serif" font-size="8.00">Wavelet</text>
</g>
<!-- 46944165502160&#45;&gt;46944165502240 -->
<g id="edge7" class="edge"><title>46944165502160&#45;&gt;46944165502240</title>
<path fill="none" stroke="black" d="M54.4685,-216.411C50.1645,-208.042 44.8508,-197.71 40.0473,-188.37"/>
<polygon fill="black" stroke="black" points="43.1563,-186.762 35.4703,-179.47 36.9313,-189.964 43.1563,-186.762"/>
</g>
<!-- 46944165502180 -->
<g id="node6" class="node"><title>46944165502180</title>
<ellipse fill="none" stroke="black" cx="100" cy="-162" rx="27.5899" ry="18"/>
<text text-anchor="middle" x="100" y="-160.1" font-family="Times,serif" font-size="8.00">Laplacian</text>
</g>
<!-- 46944165502160&#45;&gt;46944165502180 -->
<g id="edge8" class="edge"><title>46944165502160&#45;&gt;46944165502180</title>
<path fill="none" stroke="black" d="M71.7685,-216.411C76.1921,-208.042 81.6534,-197.71 86.5902,-188.37"/>
<polygon fill="black" stroke="black" points="89.7157,-189.947 91.2945,-179.47 83.527,-186.675 89.7157,-189.947"/>
</g>
<!-- 46944165553240&#45;&gt;46944165502720 -->
<g id="edge10" class="edge"><title>46944165553240&#45;&gt;46944165502720</title>
<path fill="none" stroke="black" d="M233.65,-360.765C229.288,-352.283 223.853,-341.714 218.959,-332.197"/>
<polygon fill="black" stroke="black" points="221.99,-330.439 214.304,-323.147 215.765,-333.641 221.99,-330.439"/>
</g>
<!-- 46944165502280 -->
<g id="node10" class="node"><title>46944165502280</title>
<ellipse fill="none" stroke="black" cx="283" cy="-306" rx="31.5313" ry="18"/>
<text text-anchor="middle" x="283" y="-304.1" font-family="Times,serif" font-size="8.00">Composition</text>
</g>
<!-- 46944165553240&#45;&gt;46944165502280 -->
<g id="edge9" class="edge"><title>46944165553240&#45;&gt;46944165502280</title>
<path fill="none" stroke="black" d="M251.509,-360.765C256.457,-352.317 262.618,-341.799 268.174,-332.312"/>
<polygon fill="black" stroke="black" points="271.224,-334.031 273.258,-323.633 265.183,-330.493 271.224,-334.031"/>
</g>
<!-- 46944165502360 -->
<g id="node11" class="node"><title>46944165502360</title>
<ellipse fill="none" stroke="black" cx="262" cy="-234" rx="31.5313" ry="18"/>
<text text-anchor="middle" x="262" y="-232.1" font-family="Times,serif" font-size="8.00">Composition</text>
</g>
<!-- 46944165502280&#45;&gt;46944165502360 -->
<g id="edge11" class="edge"><title>46944165502280&#45;&gt;46944165502360</title>
<path fill="none" stroke="black" d="M277.916,-288.055C275.518,-280.059 272.599,-270.331 269.92,-261.4"/>
<polygon fill="black" stroke="black" points="273.263,-260.362 267.037,-251.789 266.558,-262.373 273.263,-260.362"/>
</g>
<!-- 46944165502300 -->
<g id="node18" class="node"><title>46944165502300</title>
<ellipse fill="none" stroke="black" cx="350" cy="-234" rx="38.6432" ry="18"/>
<text text-anchor="middle" x="350" y="-232.1" font-family="Times,serif" font-size="8.00">InverseWavelet</text>
</g>
<!-- 46944165502280&#45;&gt;46944165502300 -->
<g id="edge12" class="edge"><title>46944165502280&#45;&gt;46944165502300</title>
<path fill="none" stroke="black" d="M297.538,-289.811C306.457,-280.492 318.051,-268.38 328.07,-257.912"/>
<polygon fill="black" stroke="black" points="330.64,-260.288 335.026,-250.644 325.583,-255.448 330.64,-260.288"/>
</g>
<!-- 46944165502440 -->
<g id="node12" class="node"><title>46944165502440</title>
<ellipse fill="none" stroke="black" cx="190" cy="-162" rx="31.5313" ry="18"/>
<text text-anchor="middle" x="190" y="-160.1" font-family="Times,serif" font-size="8.00">Composition</text>
</g>
<!-- 46944165502360&#45;&gt;46944165502440 -->
<g id="edge13" class="edge"><title>46944165502360&#45;&gt;46944165502440</title>
<path fill="none" stroke="black" d="M246.731,-218.155C236.803,-208.503 223.685,-195.749 212.564,-184.937"/>
<polygon fill="black" stroke="black" points="214.857,-182.285 205.247,-177.824 209.978,-187.304 214.857,-182.285"/>
</g>
<!-- 46944165502380 -->
<g id="node17" class="node"><title>46944165502380</title>
<ellipse fill="none" stroke="black" cx="285" cy="-162" rx="44.6228" ry="18"/>
<text text-anchor="middle" x="285" y="-160.1" font-family="Times,serif" font-size="8.00">InverseMagicFilter</text>
</g>
<!-- 46944165502360&#45;&gt;46944165502380 -->
<g id="edge14" class="edge"><title>46944165502360&#45;&gt;46944165502380</title>
<path fill="none" stroke="black" d="M267.568,-216.055C270.156,-208.176 273.297,-198.617 276.196,-189.794"/>
<polygon fill="black" stroke="black" points="279.527,-190.868 279.324,-180.275 272.877,-188.683 279.527,-190.868"/>
</g>
<!-- 46944165502520 -->
<g id="node13" class="node"><title>46944165502520</title>
<ellipse fill="none" stroke="black" cx="151" cy="-90" rx="31.5313" ry="18"/>
<text text-anchor="middle" x="151" y="-88.1" font-family="Times,serif" font-size="8.00">Composition</text>
</g>
<!-- 46944165502440&#45;&gt;46944165502520 -->
<g id="edge15" class="edge"><title>46944165502440&#45;&gt;46944165502520</title>
<path fill="none" stroke="black" d="M180.758,-144.411C176.095,-136.042 170.338,-125.71 165.135,-116.37"/>
<polygon fill="black" stroke="black" points="168.101,-114.502 160.176,-107.47 161.986,-117.909 168.101,-114.502"/>
</g>
<!-- 46944165502460 -->
<g id="node16" class="node"><title>46944165502460</title>
<ellipse fill="none" stroke="black" cx="228" cy="-90" rx="27" ry="18"/>
<text text-anchor="middle" x="228" y="-88.1" font-family="Times,serif" font-size="8.00">Potential</text>
</g>
<!-- 46944165502440&#45;&gt;46944165502460 -->
<g id="edge16" class="edge"><title>46944165502440&#45;&gt;46944165502460</title>
<path fill="none" stroke="black" d="M199.005,-144.411C203.549,-136.042 209.158,-125.71 214.228,-116.37"/>
<polygon fill="black" stroke="black" points="217.364,-117.928 219.059,-107.47 211.212,-114.589 217.364,-117.928"/>
</g>
<!-- 46944165502620 -->
<g id="node14" class="node"><title>46944165502620</title>
<ellipse fill="none" stroke="black" cx="113" cy="-18" rx="27" ry="18"/>
<text text-anchor="middle" x="113" y="-16.1" font-family="Times,serif" font-size="8.00">Wavelet</text>
</g>
<!-- 46944165502520&#45;&gt;46944165502620 -->
<g id="edge17" class="edge"><title>46944165502520&#45;&gt;46944165502620</title>
<path fill="none" stroke="black" d="M141.995,-72.411C137.451,-64.0421 131.842,-53.7098 126.772,-44.3698"/>
<polygon fill="black" stroke="black" points="129.788,-42.5887 121.941,-35.4699 123.636,-45.9283 129.788,-42.5887"/>
</g>
<!-- 46944165502560 -->
<g id="node15" class="node"><title>46944165502560</title>
<ellipse fill="none" stroke="black" cx="189" cy="-18" rx="31.3964" ry="18"/>
<text text-anchor="middle" x="189" y="-16.1" font-family="Times,serif" font-size="8.00">MagicFilter</text>
</g>
<!-- 46944165502520&#45;&gt;46944165502560 -->
<g id="edge18" class="edge"><title>46944165502520&#45;&gt;46944165502560</title>
<path fill="none" stroke="black" d="M160.005,-72.411C164.549,-64.0421 170.158,-53.7098 175.228,-44.3698"/>
<polygon fill="black" stroke="black" points="178.364,-45.9283 180.059,-35.4699 172.212,-42.5887 178.364,-45.9283"/>
</g>
</g>
</svg>
